<svg width="1200" height="560" viewBox="0 0 1200 560" fill="none" xmlns="http://www.w3.org/2000/svg">
  <defs>
    <linearGradient id="hero-bg" x1="96" y1="48" x2="1090" y2="512" gradientUnits="userSpaceOnUse">
      <stop stop-color="#08111F"/>
      <stop offset="0.5" stop-color="#10344B"/>
      <stop offset="1" stop-color="#F59E0B"/>
    </linearGradient>
    <linearGradient id="hero-panel" x1="84" y1="76" x2="1114" y2="498" gradientUnits="userSpaceOnUse">
      <stop stop-color="#FFFFFF" stop-opacity="0.12"/>
      <stop offset="1" stop-color="#FFFFFF" stop-opacity="0.04"/>
    </linearGradient>
    <radialGradient id="glow-left" cx="0" cy="0" r="1" gradientUnits="userSpaceOnUse" gradientTransform="translate(318 264) rotate(27.4) scale(332 236)">
      <stop stop-color="#F8FAFC" stop-opacity="0.16"/>
      <stop offset="1" stop-color="#F8FAFC" stop-opacity="0"/>
    </radialGradient>
    <radialGradient id="glow-right" cx="0" cy="0" r="1" gradientUnits="userSpaceOnUse" gradientTransform="translate(884 264) rotate(90) scale(252 204)">
      <stop stop-color="#F59E0B" stop-opacity="0.18"/>
      <stop offset="1" stop-color="#F59E0B" stop-opacity="0"/>
    </radialGradient>
    <filter id="soft-shadow" x="0" y="0" width="1200" height="560" filterUnits="userSpaceOnUse" color-interpolation-filters="sRGB">
      <feFlood flood-opacity="0" result="BackgroundImageFix"/>
      <feColorMatrix in="SourceAlpha" type="matrix" values="0 0 0 0 0 0 0 0 0 0 0 0 0 0 0 0 0 0 127 0" result="hardAlpha"/>
      <feOffset dy="18"/>
      <feGaussianBlur stdDeviation="20"/>
      <feColorMatrix type="matrix" values="0 0 0 0 0.188235 0 0 0 0 0.137255 0 0 0 0 0.0627451 0 0 0 0.18 0"/>
      <feBlend mode="normal" in2="BackgroundImageFix" result="effect1_dropShadow_1_1"/>
      <feBlend mode="normal" in="SourceGraphic" in2="effect1_dropShadow_1_1" result="shape"/>
    </filter>
  </defs>
  <rect x="32" y="32" width="1136" height="496" rx="40" fill="url(#hero-bg)"/>
  <g filter="url(#soft-shadow)">
    <rect x="66" y="66" width="1068" height="428" rx="34" fill="url(#hero-panel)"/>
  </g>
  <rect x="66" y="66" width="1068" height="428" rx="34" fill="#08111F" fill-opacity="0.28" stroke="#FFFFFF" stroke-opacity="0.16"/>
  <rect x="102" y="104" width="460" height="352" rx="28" fill="url(#glow-left)"/>
  <rect x="602" y="104" width="482" height="352" rx="28" fill="url(#glow-right)"/>
  <circle cx="1040" cy="142" r="10" fill="#FFFFFF" fill-opacity="0.78"/>
  <circle cx="1072" cy="184" r="6" fill="#F59E0B" fill-opacity="0.72"/>
  <circle cx="1010" cy="430" r="14" fill="#2DD4BF" fill-opacity="0.18"/>
  <circle cx="142" cy="430" r="12" fill="#F97316" fill-opacity="0.18"/>
  <rect x="126" y="130" width="196" height="34" rx="17" fill="#0F172A" fill-opacity="0.44"/>
  <text x="152" y="152" fill="#F8FAFC" font-family="Arial, sans-serif" font-size="16" font-weight="700">LokiDoki Skills</text>
  <text x="126" y="218" fill="#F8FAFC" font-family="Arial, sans-serif" font-size="56" font-weight="700">Private AI skills</text>
  <text x="126" y="282" fill="#F8FAFC" font-family="Arial, sans-serif" font-size="56" font-weight="700">for your home.</text>
  <text x="126" y="346" fill="#D7E2EE" font-family="Arial, sans-serif" font-size="26">Installable tools and integrations for LokiDoki.</text>
  <rect x="126" y="384" width="228" height="10" rx="5" fill="#F59E0B" fill-opacity="0.28"/>
  <svg x="700" y="82" width="410" height="410" viewBox="0 0 1024 1024" xmlns="http://www.w3.org/2000/svg"><path fill="#b6e832" d="M508 235h15l75 2h4q19 1 38 5l8 1a341 341 0 0 1 78 20l3 1 16 7 8 4a313 313 0 0 1 117 87 328 328 0 0 1 78 198l1 16a402 402 0 0 1-18 170 238 238 0 0 1-101 129l-2 1a284 284 0 0 1-58 27q-30 12-63 18h-2l-12 3-7 1c-85 16-173 16-259 10h-3l-33-3c-79-9-164-24-230-71l-3-2-25-21a193 193 0 0 1-53-83q-14-37-16-76v-3l-1-33v-4a474 474 0 0 1 13-114c11-52 32-103 65-145l2-3 26-28 2-2 17-16 29-22 2-1a362 362 0 0 1 93-47l18-6 9-2q21-6 44-10l3-1 27-3q47-5 95-4"/><path fill="#99d72a" d="m795 37 11 3 3 2 3 2 27 15 27 19 3 2a212 212 0 0 1 80 123c8 39 1 81-20 115q-17 24-40 41l-3 2-1 1-2 1-6 2-4-4-3-3-5-7q-11-13-26-25l-2-3-1-2-4-1-5-4a282 282 0 0 0-95-54l-20-7 5-7q25-21 40-50l1-2 16-31q25-58 19-123v-3z"/><path fill="#97d629" d="m240 43 1 1v6q-3 36 2 71v3q4 25 13 50v2q11 34 33 61l2 2 13 13 2 2 4 3q-6 5-14 6-31 12-60 29l-2 1-30 20-7 4v2l-5 4-3 3-7 5-7 7-26 26q-18-13-34-30l-2-2q-13-17-22-38l-1-3c-15-35-10-80 4-115a203 203 0 0 1 43-66l32-28 2-1q26-19 54-34l3-2 2-1 3-1z"/><path fill="#020202" d="M745 467q17 15 27 36l2 3c8 17 8 17 7 23l-1 2-1-2a115 115 0 0 0-63-69l-3-1a129 129 0 0 0-86-1 158 158 0 0 0-47 23c-7 5-7 5-12 11l2-2q29-23 66-19a105 105 0 0 1 73 56l1 2a73 73 0 0 1 8 38q-1 16-7 30l-1 2q-4 12-13 21l-2 2a84 84 0 0 1-52 28h-17a70 70 0 0 1-37-9 96 96 0 0 1-46-56q-11-36 4-67 12-22 30-40l2-2c44-46 117-49 166-9"/><path fill="#020201" d="m314 436 2 1a135 135 0 0 1 56 31q21 22 32 51l1 3a86 86 0 0 1-77 107h-4q-34 1-60-22l-3-2a89 89 0 0 1-27-61q-1-35 21-63l1-2q19-20 46-29h13v-2h-6l-3-1-5-1a110 110 0 0 0-90 28l-2 2c-16 14-27 40-30 61h-1a101 101 0 0 1 32-81c26-25 70-31 104-20"/><path fill="#fcfcfb" d="M667 451h2q48-1 84 32 18 20 27 45l1 2q9 30 0 60l-1 5a104 104 0 0 1-48 59q-51 31-110 19-37-8-63-35l-2-2a89 89 0 0 1-23-67q-1-14 4-27h1v2q-2 21 5 41l1 4q8 20 24 36l2 2q25 22 58 22h3q35-1 60-24 15-16 21-37l1-2a65 65 0 0 0 2-25q-1-36-28-61l-2-2a87 87 0 0 0-56-26q-35-2-62 21l-2-1a163 163 0 0 1 76-40zm-352-3v2h-2q-13 0-24 6l-3 1q-10 5-19 13l-2 2a89 89 0 0 0-30 56q-4 40 21 70 23 26 56 30 38 2 67-21l2-2a90 90 0 0 0 26-61l2 1c1 31-5 58-26 81-20 21-49 32-77 33q-55 2-96-33-31-29-32-72c-1-29 10-58 31-79 28-27 68-36 106-27"/><path fill="#060801" d="M367 707q4 0 7 3l2 2a67 67 0 0 0 19 14q38 20 81 19h2c32 0 70-6 94-29l4-4q2-2 5-2l3 2q1 8-5 13c-28 25-68 33-104 32h-3a146 146 0 0 1-43-5c-22-6-50-16-63-36l-1-7z"/><path fill="#fbfbfb" d="M656 500q10 5 16 16 4 13-3 24-6 9-16 12-12 2-22-2-10-6-14-17-2-12 3-23 15-18 36-10"/><path fill="#040501" d="M712 357c15 7 33 18 40 33l-1 5q-7 0-12-4c-25-17-57-25-86-25h-4l-16 2h-9l-2-5q6-11 17-15c23-11 52-1 73 9"/><path fill="#030500" d="M329 350c8 6 8 6 8 11l-2 4h-5a128 128 0 0 0-46 3q-32 8-62 25l-7 1-1-3c1-8 12-16 18-21q20-15 45-23l2-1c17-5 36-7 50 4"/><path fill="#0a0b06" d="M745 467q17 15 27 36l2 3c8 17 8 17 7 23l-1 2-1-2a115 115 0 0 0-63-69l-3-1a129 129 0 0 0-86-1q-25 7-45 22l-2 1-5 4-2 1-6 8-4 1 13-16 2-2c43-47 118-50 167-10"/><path fill="#d0f454" d="m488 235 110 2h4q19 1 38 5l9 1 13 3-3 1v2h-3v2h6l-1 2h-4l-3-1-8-1-23-3-47-4-9-1-12-1h-2l-7 1h-5l-10-1h-60l-6 1h-5q-25 1-49 4h-2l-22 4c-10 2-10 2-14 0l10-3-1-4 21-4h2a619 619 0 0 1 83-5"/><path fill="#611211" d="M449 634h3q18-1 32 11c4 5 4 7 4 14l-2 5q-12 6-25 3-18-2-30-13-4-5-3-11 7-12 21-9"/><path fill="#fafafa" d="M365 491q8 4 12 13 3 12-4 21-8 8-20 6-10-1-15-9l-2-3-1-2q-3-8 1-17 3-5 8-8l3-2q9-3 18 1"/><path fill="#c9ee51" d="m233 54 2 1 1 5 1 3h2v3a376 376 0 0 0 17 108v2q12 35 35 63 5 4 5 12l-2-2-5-5q-8-7-14-17v-2h-2l-4-9h-2l-1-2-3-6q-3-6-4-13h-2l-1-3-2-5-1-2-4-12-6-20q-14-49-10-99"/><path fill="#2c5a0f" d="m711 253 1 2 7 2 18 6 10 4 23 10 2 1a245 245 0 0 1 56 38l2 2 4 2q4 2 7 6l38 40h-2l-1 4-15-17-5-4-2-3-6-6-3-2v-2l-2-1q-4-2-7-6l-21-17-2-2-41-25q-24-13-50-22l-3-1-16-5h2z"/><path fill="#28550d" d="M309 256h2l4 5-2 1q-64 21-117 64l-3 2-42 40-1-5 3-4 3-3 24-25 4-3 10-8 3-1v-2l3-2 9-6a331 331 0 0 1 100-52z"/><path fill="#c9ef4d" d="M469 237v1h-5v2l4 2-8 1q-25 1-49 4h-2l-22 4c-10 2-10 2-14 0l10-3-1-4 21-4h2c47-6 47-6 64-3"/><path fill="#060601" d="M447 634h10l-1 3-5 2c-5 1-5 1-8 4l2 14v4q-8-1-14-8-4-3-3-10c5-9 10-9 19-9"/><path fill="#306710" d="M309 256h2l4 5-2 1q-32 10-61 26l-3 2-3-1-1-3 26-14 4-1 34-14z"/><path fill="#bfec41" d="m205 64 3 1q-11 9-23 15l-5 5-2 1-9 7-2 1-22 21-2 2-22 25q1-8 7-14l3-1 1-2q4-8 11-14l4-4h2l1-3h2l1-3 5-2 1-3 4-1v-2l5-2v-2h3l1-2 8-7 2-1 19-12z"/><path fill="#d8f363" d="M234 55h1v2l2 6h2v3c0 24 0 24 3 48l1 17-1-2h-2c-7-24-6-49-6-74"/><path fill="#b3e147" d="m267 213 4 2 2-2 1 2 13 19c8 10 8 10 9 17l-2-2-5-5q-8-7-14-17v-2h-2l-4-9h-2z"/><path fill="#cef545" d="M549 241c35 0 35 0 50 2l13 1 50 7-1 2h-4l-3-1-8-1-23-3-38-4-11-1h-5l-17-1h-3z"/><path fill="#bee74d" d="M255 180h3l1 3 12 33q-9-6-12-17v-4h-2q-3-7-2-15"/><path fill="#769d33" d="M606 934v1l-90 3h-32v-1h2l55-1h3l9-1h10z"/><path fill="#d1f54f" d="m205 64 3 1q-11 9-23 15l-5 5-2 1-6 5-9 4v-2l5-2v-2h3l1-2 8-7 2-1 19-12z"/><path fill="#abdc42" d="M757 198v6l-2 3 2 1c-8 14-8 14-12 17h-4l7-12z"/><path fill="#99d035" d="m739 226 3 1-6 8-7 8q-4 4-10 5l13-14z"/><path fill="#caf441" d="M468 241q-3 3-8 2l-19 1h-3l-25 3-2-2q29-5 57-4"/><path fill="#dedfdf" d="m594 471 2 1-2 2 1 2-3 2q-13 5-24 15l-2-1 25-19z"/><path fill="#c0e352" d="m880 91 7 5 2 2 2 2 2 2c12 12 12 12 15 18q-4-1-7-6l-6-6-2-4h-2l-5-5-2-2-2-4h-2z"/><path fill="#cef546" d="m533 239 2 1 13 1-1 2h-4l-19-1h-24l-2-2z"/><path fill="#7bc92a" d="m895 341 2 2-22 19-3-4h3l3-3 3-2 9-7 3-3z"/><path fill="#c9f24b" d="m161 95 2 1-14 13-2 2-2 2-2 2-6 4 4-6 6-6h2l1-3h2l1-3 5-2 1-3z"/><path fill="#d1f44a" d="M799 87h1l-4 27-1 3v5l-3 5a205 205 0 0 1 7-40"/><path fill="#2b5d10" d="m180 331 2 1-28 29-2-1 2-2 16-16 2-2z"/><path fill="#d6f750" d="M231 52c-16 12-16 12-23 12l12-9 3-2c5-3 5-3 8-1"/><path fill="#c3ee44" d="M930 497q5 12 7 25v2l1 13h-1l-1-3-5-27z"/><path fill="#c9ea39" d="M553 506v5l-2 2-9 18c-2-5 2-10 4-15l5-8h2z"/><path fill="#a7e139" d="m280 233 2 2 6 4q4 2 7 6l1 6-2-2-10-9z"/><path fill="#a6de38" d="m739 226 3 1q-1 5-6 8l-2 2-2 2-2 2 4-9 2-2z"/><path fill="#79be32" d="m161 349 2 1-14 14-8-6 6 2q5-1 9-6l3-3z"/><path fill="#d1f655" d="m761 280 11 4-3 3-5-1v-2h-3z"/><path fill="#8dd02a" d="m89 225 2 1v11l-1 13h-1l-1-10v-5l1-3z"/><path fill="#e4edbf" d="m407 544 2 1v24h-1v-5l-1-2-1-5v-8l1-3z"/><path fill="#2d3616" d="M774 509q4 4 5 10v2q3 5 1 10l-7-20z"/><path fill="#272b16" d="m574 481 4 1-8 8-3 2v2l-4 1z"/><path fill="#2c4e11" d="m311 256 4 5-10 2q1-6 6-7"/><path fill="#c9e85c" d="m880 91 9 7 3 3 2 2-3 1-5-5-2-2-2-4h-2z"/><path fill="#d0f748" d="M687 257q10-1 19 6l-9-1v-2h-4l-6-1z"/><path fill="#d5f655" d="m848 73 2 1 6 2 1 2 3 1 3 3v2q-3 1-5-2l-2-2-4-2v-2l-4-1z"/><path fill="#2b0d08" d="M441 645h1l2 6v3l1 7-4-1z"/><path fill="#0b0b0a" d="m391 571 1 2-3 5-1 3-2 2h-3l5-8 2-2z"/><path fill="#ace339" d="m748 217 3 1-3 4-1 1q-1 3-6 2 2-5 7-8"/><path fill="#d9f85b" d="m833 63 10 5 3 2 2 1v2l-10-5-2-2z"/><path fill="#d1d3d2" d="m575 484 3 1-10 8-2-1z"/><path fill="#bcbbbd" d="m305 447 10 1v2h-11z"/><path fill="#abd647" d="M129 396v5l-9 11 6-11 2-3z"/><path fill="#c5f13c" d="M382 249h5q-4 4-10 3l-4-1z"/><path fill="#e3e4e6" d="m586 476 2 1-8 7-3-1z"/><path fill="#772415" d="m464 635 5 1 3 1 4 3-3 1-5-3-4-1z"/><path fill="#c4e84e" d="m908 421 6 9v3h-2l-2-5-1-3z"/><path fill="#a2d63d" d="m747 214 4 1v2l-9 5z"/><path fill="#321606" d="m457 634 7 1v2h-8z"/><path fill="#a8c842" d="m382 244-1 2-5 1-2 1-3-1v-2z"/><path fill="#abd448" d="M95 461h2l-3 10h-2z"/><path fill="#b3db4f" d="m119 132 2 2-6 7q1-5 4-9"/><path fill="#487c18" d="m304 259 2 1-1 3 3 1-5 1-2-5z"/><path fill="#afd245" d="M774 164h2q-1 7-5 10z"/><path fill="#c8f24a" d="M889 107q5 2 7 6-4 0-7-3z"/></svg>
</svg>
